# xmcd
#
# Track frame offsets: 
#        150
#        23169
#        38844
#        59639
#        76412
#        96497
#        123747
#        144008
#        163486
#        181945
#
# Disc length: 2686 seconds
#
# Revision: 3
# Processed by: cddbd v1.5.2PL0 Copyright (c) Steve Scherf et al.
# Submitted via: ExactAudioCopy v0.99pb4
#
DISCID=8a0a7c0a
DTITLE=Otis Spann - Otis Spann Is The Blues
DYEAR=1960
DGENRE=Blues
TTITLE0=The Hard Way
TTITLE1=Take a Little Walk with Me
TTITLE2=Otis in the Dark
TTITLE3=Little Boy Blue
TTITLE4=Country Boy
TTITLE5=Beat-up Team
TTITLE6=My Daily Wish
TTITLE7=Great Northern Stomp
TTITLE8=I Got Rambling on My Mind #2
TTITLE9=Worried Life Blues
EXTD=Recorded at Fine Recording Studios, New York, August 23, 1960
EXTT0=
EXTT1=
EXTT2=
EXTT3=
EXTT4=
EXTT5=
EXTT6=
EXTT7=
EXTT8=
EXTT9=
PLAYORDER=
